<svg xmlns="http://www.w3.org/2000/svg"  viewBox="0 0 50 50" width="50px" height="50px" baseProfile="basic" fill="#af87ce"><path fill="#af87ce" d="M31,17h-4v-5.388c0-3.584,2.916-6.5,6.5-6.5c3.267,0,5.889,2.387,6.68,6.081 c0.109,0.513,0.769,3.354,0.769,3.355l-3.896,0.904c0,0-0.673-2.9-0.784-3.423c-0.146-0.684-0.779-2.917-2.768-2.917 c-1.379,0-2.5,1.122-2.5,2.5V17z"/><path fill="#af87ce" d="M23,17h-4v-5.388c0-1.378-1.121-2.5-2.5-2.5c-1.988,0-2.621,2.234-2.768,2.919 c-0.111,0.521-0.784,3.421-0.784,3.421l-3.896-0.904c0-0.001,0.659-2.842,0.769-3.354c0.791-3.695,3.413-6.083,6.68-6.083 c3.584,0,6.5,2.916,6.5,6.5V17z"/><path fill="#af87ce" d="M46.081,34.563l-4.168-14.206c-0.026-0.069-0.055-0.148-0.086-0.239 c-0.655-1.902-2.001-4.402-6.209-4.123c-2.371,0.156-4.427,1.296-5.237,2.905L29.826,20h-9.652l-0.555-1.1 c-0.811-1.608-2.866-2.749-5.238-2.905c-4.191-0.271-5.554,2.221-6.208,4.123c-0.031,0.091-0.06,0.17-0.086,0.239L3.919,34.563 l-3.838-1.126l4.31-14.621c2.194-6.37,7.382-7.003,10.253-6.812c3.309,0.218,6.211,1.715,7.874,3.996h4.965 c1.663-2.28,4.565-3.778,7.873-3.996c2.885-0.193,8.061,0.441,10.254,6.812l0.118,0.334l4.191,14.287L46.081,34.563z"/><rect width="10" height="4" x="20" y="20" fill="#742bc9"/><path fill="#16d6fa" d="M38,47c-6.617,0-12-5.383-12-12s5.383-12,12-12s12,5.383,12,12S44.617,47,38,47z M38,27 c-4.411,0-8,3.589-8,8s3.589,8,8,8s8-3.589,8-8S42.411,27,38,27z"/><path fill="#16d6fa" d="M12,47C5.383,47,0,41.617,0,35s5.383-12,12-12s12,5.383,12,12S18.617,47,12,47z M12,27 c-4.411,0-8,3.589-8,8s3.589,8,8,8s8-3.589,8-8S16.411,27,12,27z"/><path fill="#742bc9" d="M49.493,31.564l-0.067-0.221c-1.026-3.196-3.36-5.804-6.367-7.209l2.549,8.403 c0.022,0.069,0.043,0.139,0.063,0.209l2.571,8.476C49.35,39.404,50,37.279,50,35C50,33.806,49.819,32.654,49.493,31.564z"/><path fill="#742bc9" d="M0,35c0,2.25,0.634,4.35,1.716,6.152L6.928,24.14C2.843,26.056,0,30.197,0,35z"/><rect width="6" height="4" x="22" y="33" fill="#16d6fa"/><path fill="#16d6fa" d="M30,35c0-0.692,0.097-1.359,0.263-2h-4.083h-2.361h-4.083C19.903,33.641,20,34.308,20,35 s-0.097,1.359-0.263,2h4.083h2.361h4.083C30.097,36.359,30,35.692,30,35z"/></svg>