<svg xmlns="http://www.w3.org/2000/svg"  viewBox="0 0 50 50" width="50px" height="50px" baseProfile="basic" fill="#16d6fa"><path fill="#16d6fa" d="M11.011,49.52L0.405,38.913l19.167-19.167c-1.223-4.925,0.184-10.083,3.813-13.714 c4.265-4.267,10.592-5.441,16.12-2.997l2.668,1.181l-9.241,9.241l3.536,3.536l9.241-9.242l1.181,2.668 c2.445,5.527,1.268,11.854-2.997,16.119l0,0c0,0,0,0,0,0c-3.629,3.631-8.789,5.033-13.713,3.814L11.011,49.52z M6.062,38.913 l4.949,4.95l18.058-18.059l1.179,0.402c3.828,1.305,7.97,0.349,10.814-2.497h0c2.332-2.332,3.388-5.516,3.002-8.659l-7.598,7.599 l-9.192-9.192l7.598-7.599c-3.142-0.386-6.328,0.67-8.659,3.002c-2.845,2.846-3.802,6.99-2.497,10.816l0.402,1.179L6.062,38.913z"/><rect width="4" height="4" x="28.103" y="11.457" fill="#00a4ff" transform="rotate(45.001 30.104 13.457)"/><rect width="4" height="4" x="34.467" y="17.821" fill="#00a4ff" transform="rotate(45.001 36.468 19.82)"/></svg>