<svg xmlns="http://www.w3.org/2000/svg"  viewBox="0 0 50 50" width="50px" height="50px" baseProfile="basic" fill="#af87ce"><path fill="#af87ce" d="M17.486,46.001c-1.469,0-2.96-0.261-4.414-0.812c-3.123-1.183-5.598-3.51-6.969-6.554 c-1.372-3.045-1.476-6.44-0.293-9.562c2.441-6.446,9.67-9.704,16.117-7.263c3.123,1.183,5.598,3.51,6.969,6.554 c1.372,3.045,1.476,6.44,0.293,9.562C27.299,42.92,22.534,46.001,17.486,46.001z M17.509,25c-3.433,0-6.672,2.094-7.958,5.489 c-0.804,2.124-0.733,4.433,0.199,6.503s2.616,3.652,4.739,4.457c4.382,1.661,9.3-0.555,10.959-4.938 c0.804-2.124,0.733-4.433-0.199-6.503s-2.616-3.652-4.739-4.457C19.523,25.177,18.508,25,17.509,25z"/><path fill="#16d6fa" d="M36.5,23c-5.238,0-9.5-4.262-9.5-9.5S31.262,4,36.5,4S46,8.262,46,13.5S41.738,23,36.5,23z M36.5,8 c-3.033,0-5.5,2.468-5.5,5.5s2.467,5.5,5.5,5.5s5.5-2.468,5.5-5.5S39.533,8,36.5,8z"/><path fill="#16d6fa" d="M29,13.5c0-0.878,0.159-1.717,0.436-2.5H25v5h4.436C29.159,15.217,29,14.378,29,13.5z"/><path fill="#16d6fa" d="M36.5,6c0.878,0,1.717,0.159,2.5,0.436V2h-5v4.436C34.783,6.159,35.622,6,36.5,6z"/><path fill="#16d6fa" d="M43.262,10.273L46.4,7.136l-3.536-3.535l-3.137,3.137C41.273,7.477,42.523,8.727,43.262,10.273z"/><path fill="#16d6fa" d="M33.273,6.738l-3.137-3.137l-3.536,3.535l3.137,3.137C30.477,8.727,31.727,7.477,33.273,6.738z"/><path fill="#16d6fa" d="M39.727,20.262l3.137,3.137l3.536-3.535l-3.137-3.137C42.523,18.273,41.273,19.523,39.727,20.262z"/><path fill="#16d6fa" d="M43.564,11C43.841,11.783,44,12.622,44,13.5s-0.159,1.717-0.436,2.5H48v-5H43.564z"/><path fill="#16d6fa" d="M29.738,16.727l-3.137,3.137l3.536,3.535l3.137-3.137C31.727,19.523,30.477,18.273,29.738,16.727z"/><path fill="#16d6fa" d="M36.5,21c-0.878,0-1.717-0.159-2.5-0.436V25h5v-4.436C38.217,20.841,37.378,21,36.5,21z"/><g><path fill="#af87ce" d="M21.219,23.681c0.807,0.306,1.546,0.709,2.227,1.177l1.881-4.968l-4.676-1.771l-1.881,4.968 C19.591,23.188,20.412,23.375,21.219,23.681z"/><path fill="#af87ce" d="M7.681,29.781c0.306-0.807,0.709-1.546,1.177-2.227L3.89,25.672l-1.771,4.676l4.968,1.881 C7.188,31.409,7.375,30.588,7.681,29.781z"/><path fill="#af87ce" d="M27.815,31.594l4.844-2.183l-2.054-4.559l-4.844,2.183C26.801,28.368,27.506,29.932,27.815,31.594z"/><path fill="#af87ce" d="M15.594,23.185l-2.183-4.844l-4.559,2.054l2.183,4.844C12.368,24.199,13.932,23.494,15.594,23.185z"/><path fill="#af87ce" d="M19.406,43.815l2.183,4.844l4.559-2.054l-2.183-4.844C22.632,42.801,21.068,43.506,19.406,43.815z"/><path fill="#af87ce" d="M27.913,34.77c-0.101,0.82-0.288,1.641-0.594,2.448s-0.709,1.546-1.177,2.227l4.968,1.881 l1.771-4.676L27.913,34.77z"/><path fill="#af87ce" d="M13.781,43.319c-0.807-0.306-1.546-0.709-2.227-1.177L9.672,47.11l4.676,1.771l1.881-4.968 C15.409,43.812,14.588,43.625,13.781,43.319z"/><path fill="#af87ce" d="M7.185,35.406l-4.844,2.183l2.054,4.559l4.844-2.183C8.199,38.632,7.494,37.068,7.185,35.406z"/></g></svg>