<svg xmlns="http://www.w3.org/2000/svg"  viewBox="0 0 50 50" width="50px" height="50px" baseProfile="basic" fill="#ff64bd"><polygon fill="#ff64bd" points="8,19 4,19 4,1 37,1 37,17 33,17 33,5 8,5"/><polygon fill="#ff64bd" points="37,48.446 24.5,41.304 12,48.446 12,10 16,10 16,41.554 24.5,36.696 33,41.554 33,28 37,28"/><rect width="4" height="4" x="12" y="10" fill="#d8007c"/><path fill="#ffd217" d="M41.555,34.775L33,30.277l-8.555,4.498l1.634-9.526l-6.921-6.747l9.565-1.39L33,8.445l4.278,8.667 l9.565,1.39l-6.921,6.747L41.555,34.775z M33,25.758l3.243,1.705l-0.619-3.61l2.624-2.558l-3.625-0.526L33,17.482l-1.622,3.286 l-3.625,0.526l2.624,2.558l-0.619,3.61L33,25.758z"/></svg>