<svg xmlns="http://www.w3.org/2000/svg"  viewBox="0 0 50 50" width="50px" height="50px" baseProfile="basic" fill="#af87ce"><path fill="#af87ce" d="M25,41.368c-3.562,0-6.943-0.868-9.52-2.445l2.089-3.412c1.928,1.181,4.636,1.857,7.431,1.857 c2.665,0,5.189-0.593,7.109-1.669l1.956,3.488C31.558,40.594,28.339,41.368,25,41.368z"/><circle cx="31.5" cy="27.5" r="3.5" fill="#ff64bd"/><circle cx="18.5" cy="27.5" r="3.5" fill="#ff64bd"/><path fill="#af87ce" d="M25,48C13.42,48,4,40.822,4,32c0-1.557,0.301-3.101,0.896-4.605C4.307,26.356,4,25.203,4,24 c0-3.859,3.14-7,7-7c1.31,0,2.576,0.367,3.675,1.053C17.815,16.707,21.357,16,25,16s7.185,0.707,10.325,2.053 C36.424,17.367,37.69,17,39,17c3.86,0,7,3.141,7,7c0,1.203-0.307,2.356-0.896,3.395C45.699,28.899,46,30.443,46,32 C46,40.822,36.58,48,25,48z M11,21c-1.654,0-3,1.346-3,3c0,0.869,0.388,1.517,0.713,1.907l0.836,1.003l-0.583,1.169 C8.325,29.367,8,30.687,8,32c0,6.617,7.626,12,17,12s17-5.383,17-12c0-1.313-0.325-2.633-0.967-3.921l-0.583-1.169l0.836-1.003 C41.612,25.517,42,24.869,42,24c0-1.654-1.346-3-3-3c-0.757,0-1.485,0.293-2.049,0.825l-1.012,0.956l-1.247-0.617 C31.83,20.748,28.479,20,25,20s-6.83,0.748-9.691,2.164l-1.247,0.617l-1.012-0.956C12.485,21.293,11.757,21,11,21z"/><path fill="#af87ce" d="M27,19h-4v-9c0-2.314,1.246-4.326,3.173-5.125c2.003-0.83,4.338-0.191,6.241,1.711 C33.829,8,34.16,8,36,8v4c-2.374,0-3.953-0.125-6.414-2.586c-0.72-0.72-1.427-1.034-1.882-0.844C27.354,8.716,27,9.214,27,10V19z"/><path fill="#af87ce" d="M40,16c-3.309,0-6-2.691-6-6s2.691-6,6-6s6,2.691,6,6S43.309,16,40,16z M40,8c-1.103,0-2,0.897-2,2 s0.897,2,2,2s2-0.897,2-2S41.103,8,40,8z"/><path fill="#742bc9" d="M25,20c0.673,0,1.339,0.037,2,0.092V16.08C26.337,16.032,25.671,16,25,16s-1.337,0.032-2,0.08v4.012 C23.661,20.037,24.327,20,25,20z"/><path fill="#742bc9" d="M38,10c0-1.103,0.897-2,2-2h-4c-0.719,0-1.205-0.003-1.618-0.087C34.139,8.564,34,9.265,34,10 c0,0.679,0.119,1.331,0.328,1.94C34.853,11.991,35.401,12,36,12h4C38.897,12,38,11.103,38,10z"/></svg>