<svg xmlns="http://www.w3.org/2000/svg"  viewBox="0 0 50 50" width="50px" height="50px" baseProfile="basic" fill="#ff64bd"><path fill="#ff64bd" d="M43,49H7V33h3.946c2.456,0,4.725,0.633,6.56,1.831C17.681,34.945,17.842,35,18,35 c0.815,0,2-1.559,2-4s-1.185-4-2-4c-0.158,0-0.319,0.055-0.491,0.168C15.671,28.367,13.402,29,10.946,29H7V13h11.944 c-0.136-1.257-0.519-2.391-1.126-3.32C17.283,8.861,17,7.934,17,7c0-3.364,3.514-6,8-6s8,2.636,8,6 c0,0.934-0.283,1.861-0.819,2.681c-0.606,0.929-0.989,2.062-1.125,3.319H43V49z M11,45h28V17H27v-2.946 c0-2.457,0.634-4.726,1.832-6.562C28.945,7.319,29,7.159,29,7c0-0.815-1.559-2-4-2s-4,1.185-4,2c0,0.159,0.055,0.319,0.167,0.491 C22.366,9.328,23,11.597,23,14.054V17H11v8c1.656-0.009,3.149-0.417,4.32-1.181C16.138,23.284,17.065,23,18,23c3.364,0,6,3.514,6,8 s-2.636,8-6,8c-0.935,0-1.862-0.284-2.683-0.82C14.149,37.416,12.656,37.009,11,37V45z"/><rect width="4" height="4" x="19" y="13" fill="#d8007c"/><rect width="4" height="4" x="7" y="25" fill="#d8007c"/><rect width="4" height="4" x="7" y="33" fill="#d8007c"/><rect width="4" height="4" x="27" y="13" fill="#d8007c"/></svg>