<svg xmlns="http://www.w3.org/2000/svg"  viewBox="0 0 50 50" width="50px" height="50px" baseProfile="basic" fill="#af87ce"><rect width="10" height="2" x="18" y="22" fill="#af87ce"/><rect width="10" height="2" x="31" y="22" fill="#af87ce"/><rect width="10" height="2" x="18" y="27" fill="#af87ce"/><rect width="10" height="2" x="31" y="27" fill="#af87ce"/><rect width="10" height="2" x="18" y="32" fill="#af87ce"/><rect width="10" height="2" x="31" y="32" fill="#af87ce"/><rect width="10" height="2" x="18" y="37" fill="#af87ce"/><rect width="10" height="2" x="31" y="37" fill="#af87ce"/><rect width="23" height="7" x="18" y="12" fill="#ff64bd"/><path fill="#16d6fa" d="M40.718,47L9,46.981C8.835,46.993,8.668,47,8.5,47C4.916,47,2,44.084,2,40.5V27h9V5h37v34.718 C48,43.733,44.733,47,40.718,47z M14.5,43h26.218C42.527,43,44,41.527,44,39.718V9H15v31.5C15,41.386,14.822,42.23,14.5,43z M6,31 v9.5C6,41.879,7.121,43,8.5,43s2.5-1.121,2.5-2.5V31H6z"/><rect width="4" height="4" x="11" y="27" fill="#00a4ff"/></svg>